<svg xmlns="http://www.w3.org/2000/svg" width="12.03" height="15" viewBox="0 0 12.03 15">
  <metadata><?xpacket begin="﻿" id="W5M0MpCehiHzreSzNTczkc9d"?>
<x:xmpmeta xmlns:x="adobe:ns:meta/" x:xmptk="Adobe XMP Core 5.6-c138 79.159824, 2016/09/14-01:09:01        ">
   <rdf:RDF xmlns:rdf="http://www.w3.org/1999/02/22-rdf-syntax-ns#">
      <rdf:Description rdf:about=""/>
   </rdf:RDF>
</x:xmpmeta>
                                                                                                    
                                                                                                    
                                                                                                    
                                                                                                    
                                                                                                    
                                                                                                    
                                                                                                    
                                                                                                    
                                                                                                    
                                                                                                    
                                                                                                    
                                                                                                    
                                                                                                    
                                                                                                    
                                                                                                    
                                                                                                    
                                                                                                    
                                                                                                    
                                                                                                    
                                                                                                    
                           
<?xpacket end="w"?></metadata>
<defs>
    <style>
      .cls-1 {
        fill: #ddd;
        fill-rule: evenodd;
      }
    </style>
  </defs>
  <path id="Фигура_768" data-name="Фигура 768" class="cls-1" d="M1138.41,1443.15a1.35,1.35,0,0,0-.61-2.46c-1.29-.31-2.15.65-2.77-0.76-0.56-1.3,1.17-3.64-.72-4.75-0.69-.41-1.33-0.15-1.27.97,0.13,2.23-1.17,2.55-2.13,4.64-0.92.56-1.67,0.87-2.59,1.45l-1.32.01v6.5h1.23l0.95,0.29a9.76,9.76,0,0,0,4.5.96,5.779,5.779,0,0,0,2.76-.49,2.508,2.508,0,0,0,.77-1.53,1.554,1.554,0,0,0,.88-2.18,1.516,1.516,0,0,0,.78-0.96A2.182,2.182,0,0,0,1138.41,1443.15Z" transform="translate(-1127 -1435)"/>
</svg>
