<svg xmlns="http://www.w3.org/2000/svg" width="24" height="24" viewBox="0 0 24 24">
  <metadata><?xpacket begin="﻿" id="W5M0MpCehiHzreSzNTczkc9d"?>
<x:xmpmeta xmlns:x="adobe:ns:meta/" x:xmptk="Adobe XMP Core 5.6-c138 79.159824, 2016/09/14-01:09:01        ">
   <rdf:RDF xmlns:rdf="http://www.w3.org/1999/02/22-rdf-syntax-ns#">
      <rdf:Description rdf:about=""/>
   </rdf:RDF>
</x:xmpmeta>
                                                                                                    
                                                                                                    
                                                                                                    
                                                                                                    
                                                                                                    
                                                                                                    
                                                                                                    
                                                                                                    
                                                                                                    
                                                                                                    
                                                                                                    
                                                                                                    
                                                                                                    
                                                                                                    
                                                                                                    
                                                                                                    
                                                                                                    
                                                                                                    
                                                                                                    
                                                                                                    
                           
<?xpacket end="w"?></metadata>
<defs>
    <style>
      .cls-1 {
        fill: #e5e1d7;
        fill-rule: evenodd;
      }
    </style>
  </defs>
  <path id="Фигура_1087" data-name="Фигура 1087" class="cls-1" d="M614.718,915.2h-1.136v-5.173a2.263,2.263,0,0,0-2.272-2.25h-1.538l-1.575-2.8a1.364,1.364,0,0,0-1.191-.694,1.386,1.386,0,0,0-.663.17l-6.041,3.326h-6.749a2.262,2.262,0,0,0-2.271,2.25V925.47a2.262,2.262,0,0,0,2.271,2.25H611.31a2.263,2.263,0,0,0,2.272-2.25v-4.535h1.136V915.2h0Zm-3.408-6.523a1.356,1.356,0,0,1,1.348,1.2h-1.707l-0.673-1.2h1.032Zm-4.524-3.44a0.465,0.465,0,0,1,.617.175l2.508,4.464H598.359Zm5.887,20.234a1.359,1.359,0,0,1-1.364,1.35H593.553a1.358,1.358,0,0,1-1.363-1.35V910.026a1.358,1.358,0,0,1,1.363-1.35h5.115l-2.179,1.2h-2.652a0.45,0.45,0,1,0,0,.9h18.836V915.2h-3.322a2.79,2.79,0,0,0-2.8,2.772v0.193a2.789,2.789,0,0,0,2.8,2.771h3.322v4.535h0Zm1.136-5.435h-4.458a1.884,1.884,0,0,1-1.891-1.872V917.97a1.883,1.883,0,0,1,1.891-1.871h4.458v3.936Zm-3.067-1.931a1,1,0,1,1-1-.994A1,1,0,0,1,610.742,918.1Zm0.568,9.9H593.553A2.545,2.545,0,0,1,591,925.47V910.026a2.545,2.545,0,0,1,2.555-2.53h6.675l5.978-3.291a1.67,1.67,0,0,1,.8-0.205,1.646,1.646,0,0,1,1.438.838l1.494,2.658h1.372a2.545,2.545,0,0,1,2.554,2.53v4.893H615v6.3h-1.136v4.255A2.545,2.545,0,0,1,611.31,928Zm-17.757-19.943a1.98,1.98,0,0,0-1.989,1.969V925.47a1.982,1.982,0,0,0,1.989,1.97H611.31a1.982,1.982,0,0,0,1.989-1.97v-4.816h1.136v-5.175H613.3v-5.453a1.981,1.981,0,0,0-1.989-1.969h-1.7l-1.656-2.947a1.088,1.088,0,0,0-1.469-.416l-6.106,3.363h-6.822ZM611.309,927.1H593.553a1.64,1.64,0,0,1-1.646-1.63V910.026a1.64,1.64,0,0,1,1.646-1.63h6.205l-3.2,1.76h-2.725a0.17,0.17,0,1,0,0,.34h19.119v4.983h-3.605a2.507,2.507,0,0,0-2.516,2.492v0.193a2.506,2.506,0,0,0,2.516,2.491h3.605v4.815A1.64,1.64,0,0,1,611.309,927.1Zm-17.756-18.144a1.077,1.077,0,0,0-1.081,1.07V925.47a1.077,1.077,0,0,0,1.081,1.07h17.756a1.077,1.077,0,0,0,1.081-1.07v-4.255h-3.039a3.071,3.071,0,0,1-3.082-3.051v-0.193a3.071,3.071,0,0,1,3.082-3.052h3.039v-3.864H593.837a0.73,0.73,0,1,1,0-1.459h2.578l1.162-.64h-4.024Zm20.538,11.359h-4.74a2.165,2.165,0,0,1-2.174-2.152V917.97a2.165,2.165,0,0,1,2.174-2.152h4.74v4.5Zm-4.74-3.936a1.6,1.6,0,0,0-1.608,1.591v0.193a1.6,1.6,0,0,0,1.608,1.592h4.175v-3.376h-4.175Zm0.388,3a1.274,1.274,0,1,1,.91-2.173,1.256,1.256,0,0,1,.376.9A1.281,1.281,0,0,1,609.739,919.377Zm0-1.987a0.714,0.714,0,1,0,.72.714,0.71,0.71,0,0,0-.21-0.5A0.726,0.726,0,0,0,609.739,917.39Zm3.235-7.234h-2.19L609.8,908.4h1.514a1.637,1.637,0,0,1,1.629,1.449Zm-1.857-.56h1.176a1.074,1.074,0,0,0-.983-0.64h-0.552Zm-0.725.559H597.268l9.38-5.164a0.753,0.753,0,0,1,.558-0.061,0.74,0.74,0,0,1,.444.345Zm-10.943-.56h9.981l-2.274-4.048a0.171,0.171,0,0,0-.1-0.078,0.174,0.174,0,0,0-.128.011h0Z" transform="translate(-591 -904)"/>
</svg>
