<svg xmlns="http://www.w3.org/2000/svg" width="24" height="20" viewBox="0 0 24 20">
  <metadata><?xpacket begin="﻿" id="W5M0MpCehiHzreSzNTczkc9d"?>
<x:xmpmeta xmlns:x="adobe:ns:meta/" x:xmptk="Adobe XMP Core 5.6-c138 79.159824, 2016/09/14-01:09:01        ">
   <rdf:RDF xmlns:rdf="http://www.w3.org/1999/02/22-rdf-syntax-ns#">
      <rdf:Description rdf:about=""/>
   </rdf:RDF>
</x:xmpmeta>
                                                                                                    
                                                                                                    
                                                                                                    
                                                                                                    
                                                                                                    
                                                                                                    
                                                                                                    
                                                                                                    
                                                                                                    
                                                                                                    
                                                                                                    
                                                                                                    
                                                                                                    
                                                                                                    
                                                                                                    
                                                                                                    
                                                                                                    
                                                                                                    
                                                                                                    
                                                                                                    
                           
<?xpacket end="w"?></metadata>
<defs>
    <style>
      .cls-1 {
        fill: #fff;
        fill-rule: evenodd;
      }
    </style>
  </defs>
  <path class="cls-1" d="M1575.95,43a6.546,6.546,0,0,1-9.91,0,6.864,6.864,0,0,0-7.04,6.833c0,2.853,1.47,5.657,4.39,8.332a30.581,30.581,0,0,0,7.14,4.73A1.057,1.057,0,0,0,1571,63a1.075,1.075,0,0,0,.47-0.107,30.589,30.589,0,0,0,7.14-4.729c2.91-2.675,4.39-5.478,4.39-8.332A6.873,6.873,0,0,0,1575.95,43Zm-9.91,1.952a4.43,4.43,0,0,1,4.06,2.446,1.091,1.091,0,0,0,1.43.34,0.936,0.936,0,0,0,.36-0.339,4.439,4.439,0,0,1,4.06-2.447,4.76,4.76,0,0,1,4.96,4.881c0,2.305-1.27,4.638-3.76,6.933a28.211,28.211,0,0,1-6.15,4.149,28.222,28.222,0,0,1-6.15-4.149c-2.5-2.3-3.76-4.629-3.76-6.934A4.758,4.758,0,0,1,1566.04,44.95Z" transform="translate(-1559 -43)"/>
</svg>
