<svg xmlns="http://www.w3.org/2000/svg" width="13" height="13.44" viewBox="0 0 13 13.44">
  <metadata><?xpacket begin="﻿" id="W5M0MpCehiHzreSzNTczkc9d"?>
<x:xmpmeta xmlns:x="adobe:ns:meta/" x:xmptk="Adobe XMP Core 5.6-c138 79.159824, 2016/09/14-01:09:01        ">
   <rdf:RDF xmlns:rdf="http://www.w3.org/1999/02/22-rdf-syntax-ns#">
      <rdf:Description rdf:about=""/>
   </rdf:RDF>
</x:xmpmeta>
                                                                                                    
                                                                                                    
                                                                                                    
                                                                                                    
                                                                                                    
                                                                                                    
                                                                                                    
                                                                                                    
                                                                                                    
                                                                                                    
                                                                                                    
                                                                                                    
                                                                                                    
                                                                                                    
                                                                                                    
                                                                                                    
                                                                                                    
                                                                                                    
                                                                                                    
                                                                                                    
                           
<?xpacket end="w"?></metadata>
<defs>
    <style>
      .cls-1 {
        fill: #fa9d05;
        fill-rule: evenodd;
      }
    </style>
  </defs>
  <path class="cls-1" d="M999.271,1450.44a0.537,0.537,0,0,0,.434-0.6c0-.01,0-0.02,0-0.03l-0.636-4.18,2.785-2.98a0.569,0.569,0,0,0,0-.77,0.487,0.487,0,0,0-.27-0.15l-3.881-.64-1.757-3.79a0.474,0.474,0,0,0-.669-0.24,0.481,0.481,0,0,0-.221.24l-1.758,3.79-3.876.64a0.538,0.538,0,0,0-.415.62,0.559,0.559,0,0,0,.141.3l2.785,2.98-0.636,4.18a0.54,0.54,0,0,0,.409.63,0.438,0.438,0,0,0,.314-0.06l3.481-1.95,3.48,1.95a0.5,0.5,0,0,0,.294.06h0Z" transform="translate(-989 -1437)"/>
</svg>
