<svg xmlns="http://www.w3.org/2000/svg" width="18.969" height="21" viewBox="0 0 18.969 21">
  <metadata><?xpacket begin="﻿" id="W5M0MpCehiHzreSzNTczkc9d"?>
<x:xmpmeta xmlns:x="adobe:ns:meta/" x:xmptk="Adobe XMP Core 5.6-c138 79.159824, 2016/09/14-01:09:01        ">
   <rdf:RDF xmlns:rdf="http://www.w3.org/1999/02/22-rdf-syntax-ns#">
      <rdf:Description rdf:about=""/>
   </rdf:RDF>
</x:xmpmeta>
                                                                                                    
                                                                                                    
                                                                                                    
                                                                                                    
                                                                                                    
                                                                                                    
                                                                                                    
                                                                                                    
                                                                                                    
                                                                                                    
                                                                                                    
                                                                                                    
                                                                                                    
                                                                                                    
                                                                                                    
                                                                                                    
                                                                                                    
                                                                                                    
                                                                                                    
                                                                                                    
                           
<?xpacket end="w"?></metadata>
<defs>
    <style>
      .cls-1 {
        fill: #5c99a0;
        fill-rule: evenodd;
      }
    </style>
  </defs>
  <path class="cls-1" d="M895.325,1931c5.768,0,9.676-5.25,9.676-10.14s-3.877-10.14-9.676-10.14a9.812,9.812,0,0,0-7.784,4.1l0.063-4.16a0.643,0.643,0,0,0-.63-0.66h0a0.643,0.643,0,0,0-.631.66l-0.095,5.94a0.6,0.6,0,0,0,.189.46,0.584,0.584,0,0,0,.441.2l5.674-.1a0.661,0.661,0,0,0,0-1.32h0l-4.191.07a8.76,8.76,0,0,1,6.964-3.87c5.043,0,8.416,4.56,8.416,8.82s-3.373,8.82-8.416,8.82a8.592,8.592,0,0,1-8.068-6.47,0.585,0.585,0,0,0-.788-0.43,0.62,0.62,0,0,0-.409.82A9.81,9.81,0,0,0,895.325,1931Z" transform="translate(-886.031 -1910)"/>
</svg>
